{"glyphs":{" ":{"ha":310,"x_min":0,"x_max":0,"o":""},"H":{"ha":1151,"x_min":39,"x_max":1113,"o":"m 1113 956 q 1048 944 1068 953 q 1021 913 1028 936 q 1014 836 1014 889 l 1014 147 q 1022 71 1014 94 q 1049 39 1029 47 q 1113 28 1068 31 l 1113 0 q 879 4 1038 4 q 633 0 719 4 l 633 28 q 698 39 678 31 q 725 71 718 47 q 732 147 732 94 l 732 481 l 419 481 l 419 147 q 427 71 419 94 q 454 39 435 47 q 518 28 474 31 l 518 0 q 286 4 438 4 q 39 0 118 4 l 39 28 q 103 39 83 31 q 131 71 124 47 q 138 147 138 94 l 138 836 q 130 913 138 889 q 103 944 122 936 q 39 956 83 953 l 39 983 q 286 979 118 979 q 518 983 436 979 l 518 956 q 453 944 474 953 q 426 913 433 936 q 419 836 419 889 l 419 508 l 732 508 l 732 836 q 724 913 732 889 q 697 944 717 936 q 633 956 678 953 l 633 983 q 879 979 719 979 q 1113 983 1038 979 l 1113 956 z "},"I":{"ha":557,"x_min":39,"x_max":518,"o":"m 518 956 q 453 944 474 953 q 426 913 433 936 q 419 836 419 889 l 419 147 q 427 71 419 94 q 454 39 435 47 q 518 28 474 31 l 518 0 q 286 4 438 4 q 39 0 118 4 l 39 28 q 103 39 83 31 q 131 71 124 47 q 138 147 138 94 l 138 836 q 130 913 138 889 q 103 944 122 936 q 39 956 83 953 l 39 983 q 286 979 118 979 q 518 983 436 979 l 518 956 z "},"S":{"ha":851,"x_min":68,"x_max":801,"o":"m 419 1003 q 548 988 499 1003 q 644 947 597 974 q 672 933 660 939 q 692 928 683 928 q 711 942 704 928 q 722 989 718 957 l 754 989 q 747 650 747 889 l 715 650 q 679 801 710 729 q 596 919 649 874 q 474 965 543 965 q 371 931 410 965 q 332 836 332 897 q 353 754 332 789 q 414 687 374 719 q 546 590 454 654 q 562 581 554 586 q 576 569 569 575 q 699 476 653 517 q 773 381 744 435 q 801 256 801 326 q 751 103 801 165 q 614 11 700 42 q 424 -19 528 -19 q 283 -6 339 -19 q 178 32 226 8 q 131 51 147 51 q 111 37 118 51 q 100 -10 104 22 l 68 -10 q 74 393 74 85 l 106 393 q 175 125 115 228 q 358 22 235 22 q 480 58 435 22 q 525 158 525 94 q 476 294 525 238 q 322 419 426 350 q 189 517 239 475 q 107 613 139 558 q 75 740 75 668 q 122 887 75 828 q 248 974 169 946 q 419 1003 326 1003 z "},"a":{"ha":738,"x_min":31,"x_max":728,"o":"m 210 -10 q 76 38 121 -10 q 31 158 31 86 q 63 262 31 221 q 140 325 96 303 q 256 371 185 347 q 365 417 331 396 q 400 475 400 438 l 400 599 q 378 678 400 643 q 301 713 356 713 q 224 689 258 713 q 294 640 271 672 q 317 567 317 607 q 278 480 317 513 q 186 447 240 447 q 101 481 132 447 q 69 568 69 515 q 90 640 69 610 q 156 696 111 671 q 378 740 233 740 q 510 726 454 740 q 604 671 565 711 q 641 598 632 642 q 650 476 650 554 l 650 104 q 655 57 650 69 q 672 44 660 44 q 693 51 682 44 q 714 65 704 57 l 728 42 q 557 -10 668 -10 q 440 19 474 -10 q 404 96 407 47 q 210 -10 339 -10 m 349 101 q 400 125 378 101 l 400 418 q 354 364 388 397 q 297 294 317 328 q 278 201 278 260 q 349 101 278 101 z "},"c":{"ha":699,"x_min":42,"x_max":667,"o":"m 399 740 q 503 728 456 740 q 582 699 551 717 q 643 639 621 676 q 665 554 665 601 q 628 458 665 496 q 532 419 590 419 q 438 453 472 419 q 404 544 404 488 q 437 633 404 594 q 518 683 469 671 q 463 700 497 700 q 338 605 374 700 q 301 379 301 510 q 351 189 301 246 q 475 132 401 132 q 643 225 576 132 l 667 217 q 563 50 636 119 q 376 -19 490 -19 q 133 71 225 -19 q 42 360 42 161 q 140 645 42 550 q 399 740 238 740 z "},"d":{"ha":846,"x_min":43,"x_max":824,"o":"m 746 153 q 763 60 746 89 q 824 31 781 31 l 824 1 q 738 6 781 6 q 496 -14 593 6 l 496 85 q 427 6 467 31 q 326 -19 388 -19 q 121 76 199 -19 q 43 365 43 171 q 126 645 43 550 q 351 740 208 740 q 496 706 440 740 l 496 919 q 478 1013 496 983 q 418 1042 461 1042 l 418 1071 q 504 1067 461 1067 q 746 1086 649 1067 l 746 153 m 396 53 q 466 81 436 53 q 496 153 496 110 l 496 676 q 431 694 465 694 q 334 612 365 694 q 303 361 303 529 q 328 122 303 190 q 396 53 353 53 z "},"e":{"ha":699,"x_min":43,"x_max":663,"o":"m 463 132 q 631 225 564 132 l 654 217 q 551 50 624 119 q 364 -19 478 -19 q 131 71 218 -19 q 43 360 43 161 q 141 645 43 550 q 400 740 239 740 q 663 429 663 740 l 304 429 q 303 379 303 413 q 349 189 303 246 q 463 132 396 132 m 390 708 q 299 456 313 708 l 460 456 q 444 638 461 567 q 390 708 426 708 z "},"g":{"ha":792,"x_min":0,"x_max":790,"o":"m 717 581 q 666 601 688 581 q 644 657 644 621 q 664 729 644 690 q 574 658 603 704 q 625 518 625 604 q 544 352 625 408 q 326 296 463 296 q 288 297 300 296 q 251 239 251 272 q 301 194 251 194 l 436 194 q 658 147 578 194 q 738 -3 738 99 q 691 -133 738 -75 q 548 -226 644 -192 q 307 -261 451 -261 q 82 -229 164 -261 q 0 -139 0 -197 q 40 -65 0 -99 q 163 -12 81 -32 l 176 -35 q 139 -124 139 -81 q 188 -208 139 -178 q 326 -237 238 -237 q 467 -201 418 -237 q 517 -103 517 -164 q 484 -34 517 -60 q 369 -8 451 -8 l 294 -8 q 150 28 200 -8 q 100 125 100 64 q 140 222 100 181 q 254 300 179 264 q 88 369 149 314 q 28 518 28 424 q 109 684 28 628 q 326 740 190 740 q 551 679 472 740 q 615 736 578 715 q 694 757 653 757 q 765 731 740 757 q 790 665 790 706 q 769 603 790 626 q 717 581 749 581 m 326 321 q 369 366 354 321 q 383 518 383 411 q 369 670 383 625 q 326 715 354 715 q 284 670 299 715 q 269 518 269 625 q 284 366 269 411 q 326 321 299 321 z "},"k":{"ha":846,"x_min":25,"x_max":849,"o":"m 793 101 q 806 78 796 96 q 826 48 815 60 q 849 29 836 36 l 849 0 q 681 6 721 6 q 485 0 635 6 l 485 29 q 525 56 525 29 q 519 76 525 65 l 397 335 q 378 357 389 350 q 353 365 368 364 l 353 129 q 370 51 353 72 q 431 29 388 29 l 431 0 q 233 6 281 6 q 25 0 186 6 l 25 29 q 85 51 68 29 q 103 129 103 72 l 103 919 q 85 1013 103 983 q 25 1042 68 1042 l 25 1071 q 111 1067 68 1067 q 353 1086 256 1067 l 353 392 q 413 413 392 392 l 519 513 q 568 603 568 557 q 537 664 568 639 q 457 693 506 689 l 457 721 q 624 717 536 717 q 814 721 760 717 l 814 693 q 608 557 718 667 l 572 521 l 793 101 z "},"l":{"ha":456,"x_min":25,"x_max":431,"o":"m 353 129 q 370 51 353 72 q 431 29 388 29 l 431 0 q 233 6 281 6 q 25 0 186 6 l 25 29 q 85 51 68 29 q 103 129 103 72 l 103 919 q 85 1013 103 983 q 25 1042 68 1042 l 25 1071 q 111 1067 68 1067 q 353 1086 256 1067 l 353 129 z "},"n":{"ha":868,"x_min":29,"x_max":853,"o":"m 578 740 q 735 685 689 740 q 765 617 756 660 q 775 506 775 575 l 775 129 q 792 51 775 72 q 853 29 810 29 l 853 0 q 658 6 703 6 q 461 0 611 6 l 461 29 q 511 51 497 29 q 525 129 525 72 l 525 581 q 509 647 525 625 q 457 668 493 668 q 387 640 417 668 q 357 568 357 611 l 357 129 q 371 51 357 72 q 421 29 385 29 l 421 0 q 238 6 282 6 q 29 0 190 6 l 29 29 q 90 51 72 29 q 107 129 107 72 l 107 569 q 90 663 107 633 q 29 692 72 692 l 29 721 q 115 717 74 717 q 357 736 260 717 l 357 636 q 578 740 419 740 z "},"o":{"ha":800,"x_min":43,"x_max":757,"o":"m 400 740 q 664 651 571 740 q 757 360 757 561 q 664 69 757 158 q 400 -19 571 -19 q 136 69 229 -19 q 43 360 43 158 q 136 651 43 561 q 400 740 229 740 m 400 713 q 329 625 356 713 q 303 360 303 538 q 329 95 303 182 q 400 8 356 8 q 471 95 444 8 q 497 360 497 182 q 471 625 497 538 q 400 713 444 713 z "},"r":{"ha":668,"x_min":29,"x_max":664,"o":"m 536 740 q 634 699 604 740 q 664 600 664 657 q 628 501 664 538 q 536 464 593 464 q 444 491 476 464 q 413 564 413 518 q 483 693 413 646 q 439 683 458 693 q 381 634 404 668 q 357 560 357 600 l 357 143 q 384 53 357 78 q 476 29 411 29 l 476 0 q 446 1 458 0 q 251 6 300 6 q 58 1 208 6 q 29 0 47 0 l 29 29 q 90 51 72 29 q 107 129 107 72 l 107 569 q 90 663 107 633 q 29 692 72 692 l 29 721 q 115 717 74 717 q 357 736 260 717 l 357 636 q 536 740 410 740 z "},"s":{"ha":656,"x_min":54,"x_max":614,"o":"m 321 740 q 423 728 375 740 q 496 703 471 717 q 521 694 511 694 q 556 739 550 694 l 583 739 q 578 489 578 667 l 550 489 q 498 644 539 581 q 379 707 457 707 q 321 686 344 707 q 297 629 297 665 q 328 548 297 583 q 424 461 358 513 q 464 429 426 460 q 578 316 542 365 q 614 194 614 267 q 576 84 614 133 q 474 8 539 35 q 333 -19 410 -19 q 190 15 246 -19 q 151 33 167 28 q 121 39 136 39 q 82 -10 94 39 l 54 -10 q 60 268 60 69 l 88 268 q 149 85 100 154 q 271 15 197 15 q 328 35 306 15 q 351 92 351 54 q 335 161 351 131 q 297 216 319 192 q 222 286 274 240 q 133 372 164 340 q 81 447 103 404 q 60 540 60 489 q 96 646 60 600 q 192 716 132 692 q 321 740 251 740 z "},"t":{"ha":486,"x_min":-6,"x_max":488,"o":"m 350 721 l 486 721 l 486 693 l 350 693 l 350 117 q 360 78 350 89 q 392 67 369 67 q 429 76 408 67 q 467 107 450 86 l 488 90 q 290 -19 424 -19 q 147 28 194 -19 q 109 100 118 57 q 100 221 100 143 l 100 693 l -6 693 l -6 721 l 100 721 l 100 885 q 235 899 175 885 q 350 946 296 914 l 350 721 z "},"u":{"ha":864,"x_min":15,"x_max":839,"o":"m 761 151 q 778 58 761 88 q 839 29 796 29 l 839 0 q 753 4 796 4 q 511 -15 608 4 l 511 85 q 290 -19 449 -19 q 133 36 179 -19 q 103 103 113 61 q 93 215 93 146 l 93 569 q 76 663 93 633 q 15 692 58 692 l 15 721 q 101 717 58 717 q 343 736 246 717 l 343 140 q 359 74 343 96 q 411 53 375 53 q 481 81 451 53 q 511 153 511 110 l 511 569 q 494 663 511 633 q 433 692 476 692 l 433 721 q 519 717 476 717 q 761 736 664 717 l 761 151 z "},"w":{"ha":1108,"x_min":-15,"x_max":1113,"o":"m 1006 715 q 1113 721 1085 715 l 1113 692 q 1059 651 1083 681 q 1014 557 1035 621 l 840 0 q 774 3 818 3 q 706 0 728 3 l 540 481 l 414 0 q 347 3 392 3 q 279 0 301 3 l 65 614 q 28 677 49 663 q -15 692 7 692 l -15 721 q 232 713 94 713 q 413 721 301 713 l 413 692 q 351 685 369 692 q 332 657 332 678 q 335 639 332 653 l 450 254 l 569 719 l 571 719 q 638 717 615 717 q 718 719 665 717 l 876 211 l 936 410 q 958 543 958 486 q 928 650 958 613 q 846 692 897 688 l 846 721 q 1006 715 897 715 z "},"y":{"ha":735,"x_min":-28,"x_max":729,"o":"m 622 715 q 729 721 701 715 l 729 692 q 676 651 700 682 q 631 557 651 621 l 457 40 l 399 -128 q 338 -228 374 -200 q 208 -261 294 -261 q 79 -228 139 -261 q 19 -131 19 -196 q 57 -53 19 -82 q 156 -24 94 -24 q 247 -50 214 -24 q 281 -126 281 -76 q 258 -190 281 -160 q 190 -233 235 -219 q 238 -236 204 -236 q 369 -125 333 -236 l 376 -101 l 53 614 q 12 676 32 661 q -28 692 -8 692 l -28 721 q 199 713 83 713 q 400 721 289 713 l 400 692 q 338 686 360 692 q 317 661 317 681 q 322 639 317 650 l 493 232 l 551 410 q 578 551 578 490 q 550 653 578 617 q 476 692 522 689 l 476 721 q 622 715 528 715 z "},".":{"ha":392,"x_min":58,"x_max":333,"o":"m 196 219 q 298 189 263 219 q 333 100 333 158 q 298 11 333 42 q 196 -19 263 -19 q 94 11 129 -19 q 58 100 58 42 q 94 189 58 158 q 196 219 129 219 z "},",":{"ha":386,"x_min":57,"x_max":332,"o":"m 188 219 q 297 168 263 219 q 322 113 313 147 q 332 36 332 78 q 294 -97 332 -36 q 185 -192 257 -158 l 172 -167 q 237 -119 208 -150 q 276 -53 265 -87 q 283 -7 283 -33 q 281 24 283 14 q 179 -19 244 -19 q 90 12 124 -19 q 57 100 57 43 q 93 187 57 154 q 188 219 129 219 z "},"'":{"ha":308,"x_min":42,"x_max":267,"o":"m 154 1014 q 235 983 203 1014 q 267 903 267 953 q 256 845 267 872 q 224 776 246 818 q 164 650 189 715 l 144 650 q 88 768 121 710 q 52 841 63 814 q 42 901 42 868 q 74 983 42 951 q 154 1014 106 1014 z "}}}
